<mxfile host="drawio-plugin" modified="2022-01-30T07:41:26.745Z" agent="5.0 (Macintosh; Intel Mac OS X 12_0_1) AppleWebKit/537.36 (KHTML, like Gecko) Chrome/89.0.4389.114 Safari/537.36" etag="iZhGoWriBvY1TEDVD0s8" version="15.5.4" type="embed"><diagram id="23iRSUPoRavnBvh4doch" name="Page-1"><mxGraphModel dx="354" dy="400" grid="1" gridSize="10" guides="1" tooltips="1" connect="1" arrows="1" fold="1" page="1" pageScale="1" pageWidth="827" pageHeight="1169" math="0" shadow="0"><root><mxCell id="0"/><mxCell id="1" parent="0"/><mxCell id="6" style="edgeStyle=orthogonalEdgeStyle;rounded=0;orthogonalLoop=1;jettySize=auto;html=1;" edge="1" parent="1" source="2" target="4"><mxGeometry relative="1" as="geometry"/></mxCell><mxCell id="2" value="START" style="rounded=1;whiteSpace=wrap;html=1;" vertex="1" parent="1"><mxGeometry x="294" y="20" width="120" height="60" as="geometry"/></mxCell><mxCell id="3" value="END" style="rounded=1;whiteSpace=wrap;html=1;" vertex="1" parent="1"><mxGeometry x="414" y="490" width="120" height="60" as="geometry"/></mxCell><mxCell id="8" style="edgeStyle=orthogonalEdgeStyle;rounded=0;orthogonalLoop=1;jettySize=auto;html=1;" edge="1" parent="1" source="4" target="7"><mxGeometry relative="1" as="geometry"/></mxCell><mxCell id="4" value="Input N" style="shape=parallelogram;perimeter=parallelogramPerimeter;whiteSpace=wrap;html=1;fixedSize=1;" vertex="1" parent="1"><mxGeometry x="294" y="120" width="120" height="60" as="geometry"/></mxCell><mxCell id="10" value="YES" style="edgeStyle=orthogonalEdgeStyle;rounded=0;orthogonalLoop=1;jettySize=auto;html=1;" edge="1" parent="1" source="7" target="9"><mxGeometry relative="1" as="geometry"/></mxCell><mxCell id="14" style="edgeStyle=orthogonalEdgeStyle;rounded=0;orthogonalLoop=1;jettySize=auto;html=1;exitX=0.5;exitY=1;exitDx=0;exitDy=0;startArrow=none;" edge="1" parent="1" source="15" target="11"><mxGeometry relative="1" as="geometry"/></mxCell><mxCell id="7" value="If there are less than n repetitions" style="rhombus;whiteSpace=wrap;html=1;" vertex="1" parent="1"><mxGeometry x="314" y="200" width="80" height="80" as="geometry"/></mxCell><mxCell id="13" style="edgeStyle=orthogonalEdgeStyle;rounded=0;orthogonalLoop=1;jettySize=auto;html=1;" edge="1" parent="1" source="9" target="7"><mxGeometry relative="1" as="geometry"><Array as="points"><mxPoint x="290" y="210"/><mxPoint x="290" y="210"/></Array></mxGeometry></mxCell><mxCell id="9" value="Input value into list_n" style="shape=parallelogram;perimeter=parallelogramPerimeter;whiteSpace=wrap;html=1;fixedSize=1;" vertex="1" parent="1"><mxGeometry x="120" y="210" width="150" height="60" as="geometry"/></mxCell><mxCell id="20" style="edgeStyle=orthogonalEdgeStyle;rounded=0;orthogonalLoop=1;jettySize=auto;html=1;" edge="1" parent="1" source="11" target="18"><mxGeometry relative="1" as="geometry"/></mxCell><mxCell id="24" value="YES" style="edgeLabel;html=1;align=center;verticalAlign=middle;resizable=0;points=[];" vertex="1" connectable="0" parent="20"><mxGeometry x="0.2925" y="2" relative="1" as="geometry"><mxPoint as="offset"/></mxGeometry></mxCell><mxCell id="28" style="edgeStyle=orthogonalEdgeStyle;rounded=0;orthogonalLoop=1;jettySize=auto;html=1;" edge="1" parent="1" source="11" target="27"><mxGeometry relative="1" as="geometry"/></mxCell><mxCell id="11" value="If there are less than n repetitions" style="rhombus;whiteSpace=wrap;html=1;" vertex="1" parent="1"><mxGeometry x="314" y="390" width="80" height="80" as="geometry"/></mxCell><mxCell id="15" value="c = 0" style="rounded=0;whiteSpace=wrap;html=1;" vertex="1" parent="1"><mxGeometry x="294" y="310" width="120" height="60" as="geometry"/></mxCell><mxCell id="16" value="" style="edgeStyle=orthogonalEdgeStyle;rounded=0;orthogonalLoop=1;jettySize=auto;html=1;exitX=0.5;exitY=1;exitDx=0;exitDy=0;endArrow=none;" edge="1" parent="1" source="7" target="15"><mxGeometry relative="1" as="geometry"><mxPoint x="354" y="280" as="sourcePoint"/><mxPoint x="354" y="340" as="targetPoint"/></mxGeometry></mxCell><mxCell id="22" value="" style="edgeStyle=orthogonalEdgeStyle;rounded=0;orthogonalLoop=1;jettySize=auto;html=1;" edge="1" parent="1" source="18" target="21"><mxGeometry relative="1" as="geometry"/></mxCell><mxCell id="23" value="YES" style="edgeLabel;html=1;align=center;verticalAlign=middle;resizable=0;points=[];" vertex="1" connectable="0" parent="22"><mxGeometry x="0.2" relative="1" as="geometry"><mxPoint as="offset"/></mxGeometry></mxCell><mxCell id="25" style="edgeStyle=orthogonalEdgeStyle;rounded=0;orthogonalLoop=1;jettySize=auto;html=1;" edge="1" parent="1" source="18" target="11"><mxGeometry relative="1" as="geometry"><Array as="points"><mxPoint x="280" y="400"/><mxPoint x="280" y="400"/></Array></mxGeometry></mxCell><mxCell id="26" value="NO" style="edgeLabel;html=1;align=center;verticalAlign=middle;resizable=0;points=[];" vertex="1" connectable="0" parent="25"><mxGeometry x="-0.2474" y="-2" relative="1" as="geometry"><mxPoint as="offset"/></mxGeometry></mxCell><mxCell id="18" value="if n-element if greater than n-1-element" style="rhombus;whiteSpace=wrap;html=1;" vertex="1" parent="1"><mxGeometry x="180" y="390" width="80" height="80" as="geometry"/></mxCell><mxCell id="30" style="edgeStyle=orthogonalEdgeStyle;rounded=0;orthogonalLoop=1;jettySize=auto;html=1;" edge="1" parent="1" source="21" target="18"><mxGeometry relative="1" as="geometry"><Array as="points"><mxPoint x="120" y="530"/><mxPoint x="120" y="430"/></Array></mxGeometry></mxCell><mxCell id="21" value="c = c + 1" style="whiteSpace=wrap;html=1;" vertex="1" parent="1"><mxGeometry x="160" y="500" width="120" height="60" as="geometry"/></mxCell><mxCell id="29" style="edgeStyle=orthogonalEdgeStyle;rounded=0;orthogonalLoop=1;jettySize=auto;html=1;entryX=0.5;entryY=0;entryDx=0;entryDy=0;" edge="1" parent="1" source="27" target="3"><mxGeometry relative="1" as="geometry"/></mxCell><mxCell id="27" value="print c" style="shape=parallelogram;perimeter=parallelogramPerimeter;whiteSpace=wrap;html=1;fixedSize=1;" vertex="1" parent="1"><mxGeometry x="414" y="400" width="120" height="60" as="geometry"/></mxCell></root></mxGraphModel></diagram></mxfile>